<svg xmlns="http://www.w3.org/2000/svg" width="127.96" height="123.127" viewBox="0 0 127.96 123.127">
  <g id="EditIcon" transform="translate(4)">
    <g id="editIcon-2" data-name="editIcon">
      <path id="Path_8" data-name="Path 8" d="M541.333,701.333H486.667s-16-4.148-16,20V792s3.926,16,16,16H568s17.333-1.333,17.333-16V736" transform="translate(-470.667 -688.873)" fill="none" stroke="#06333e" stroke-linecap="round" stroke-width="8"/>
      <g id="pen" transform="translate(102.655 0) rotate(45)">
        <rect id="Rectangle_8" data-name="Rectangle 8" width="30" height="82.105" transform="translate(0 20.029)" fill="#06333e"/>
        <path id="Rectangle_9" data-name="Rectangle 9" d="M12,0h6A12,12,0,0,1,30,12v5.368a0,0,0,0,1,0,0H0a0,0,0,0,1,0,0V12A12,12,0,0,1,12,0Z" fill="#06333e"/>
        <path id="Polygon_1" data-name="Polygon 1" d="M15,0,30,23.684H0Z" transform="translate(30.13 128.62) rotate(180)" fill="#06333e"/>
      </g>
    </g>
    <line id="Line_4" data-name="Line 4" x2="30" transform="translate(19.833 34.627)" fill="none" stroke="#06333e" stroke-width="2"/>
    <line id="Line_5" data-name="Line 5" x2="15" transform="translate(19.833 48.627)" fill="none" stroke="#06333e" stroke-width="2"/>
  </g>
</svg>
