<svg xmlns="http://www.w3.org/2000/svg" width="66.436" height="77.855" viewBox="0 0 66.436 77.855">
  <g id="leaf_Icon" transform="translate(0 13.782) rotate(-16)">
    <g id="Group_1" data-name="Group 1" transform="translate(0 0)">
      <path id="Path_1" data-name="Path 1" d="M49.914.936A1.186,1.186,0,0,0,48.864,0C4.761,0,0,24.365,0,34.842A28.656,28.656,0,0,0,1.866,45.3a1.153,1.153,0,0,0,.982.815,1.182,1.182,0,0,0,1.009-.757C6.834,38.5,15.266,21.572,29.191,12.577c.57-.364,1.252-.052,1.523.7a1.776,1.776,0,0,1-.527,2.027c-1.05.679-2.059,1.418-3.048,2.184-.377.294-.743.606-1.114.912-.557.461-1.107.93-1.643,1.415s-1.061.97-1.58,1.472c-.161.157-.316.318-.475.479C8.468,35.53,0,57.493,0,65.14c0,.836.509,1.515,1.136,1.515s1.136-.679,1.136-1.515c0-2.442,1.248-7.393,3.609-13.3a17.676,17.676,0,0,0,13.436,5.723c14.593,0,17.65-18.512,19.291-28.459C40.818,15.721,45.68,7.9,49.666,2.584A1.889,1.889,0,0,0,49.914.936Z" transform="translate(0)" fill="#184d47"/>
    </g>
  </g>
</svg>
