<svg id="moon" xmlns="http://www.w3.org/2000/svg" width="50" height="50.349" viewBox="0 0 50 50.349">
  <path id="Path_2" data-name="Path 2" d="M-20.4,160c28-.1,27.274,21.868,27.516,22.35s.483,2.655,0,7.241a15.922,15.922,0,0,1-2.172,7s-2.655,4.345-3.862,5.31A46.662,46.662,0,0,1-3.744,206a21.547,21.547,0,0,1-5.793,2.9,19.573,19.573,0,0,1-7.965,1.448,30.807,30.807,0,0,1-9.413-1.448c-2.172-.724-5.31-3.138-6.517-4.1a25.317,25.317,0,0,1-4.586-4.345c-1.207-1.69-1.69-1.69-2.655-3.862a46.921,46.921,0,0,1-1.931-7,15.9,15.9,0,0,0,4.586,2.655c1.931.483,2.655,1.207,4.586,1.207s4.827.483,6.517,0a14.684,14.684,0,0,0,6.517-3.862,25.28,25.28,0,0,0,5.551-7.241,19.043,19.043,0,0,0,1.448-8.206,19.511,19.511,0,0,0-1.448-7.482C-15.571,165.213-20.4,160-20.4,160Z" transform="translate(42.604 -159.999)" fill="#fbfbfb"/>
</svg>
