<svg xmlns="http://www.w3.org/2000/svg" width="91.537" height="95.354" viewBox="0 0 91.537 95.354">
  <g id="productsIcon" transform="translate(0.509)">
    <path id="Path_20" data-name="Path 20" d="M161.38,514.667l5.274,12.226v41.228s.278,2.843-3.054,2.843-7.5,2.559-18.321,2.275a160.7,160.7,0,0,1-21.652-2.275s-2.221-.853-1.943-2.843,0-41.228,0-41.228l4.164-12.226s10.826,1.137,19.432,1.422A70.826,70.826,0,0,0,161.38,514.667Z" transform="translate(-121.66 -484.667)" fill="#5ee5d7" stroke="#fff" stroke-width="1"/>
    <g id="Path_21" data-name="Path 21" transform="translate(0.34 11)" fill="#67ff80">
      <path d="M 35 18.70000076293945 L 5 18.70000076293945 C 2.51869010925293 18.70000076293945 0.5 16.68131065368652 0.5 14.20000076293945 L 0.5 5.000000476837158 C 0.5 2.518690347671509 2.51869010925293 0.5000003576278687 5 0.5000003576278687 L 35 0.5000003576278687 C 37.4813117980957 0.5000003576278687 39.5 2.518690347671509 39.5 5.000000476837158 L 39.5 14.20000076293945 C 39.5 16.68131065368652 37.4813117980957 18.70000076293945 35 18.70000076293945 Z" stroke="none"/>
      <path d="M 5 1 C 2.794391632080078 1 1 2.794389724731445 1 5 L 1 14.20000076293945 C 1 16.40561103820801 2.794391632080078 18.20000076293945 5 18.20000076293945 L 35 18.20000076293945 C 37.20560836791992 18.20000076293945 39 16.40561103820801 39 14.20000076293945 L 39 5 C 39 2.794389724731445 37.20560836791992 1 35 1 L 5 1 M 5 0 L 35 0 C 37.76142120361328 0 40 2.238580703735352 40 5 L 40 14.20000076293945 C 40 16.9614200592041 37.76142120361328 19.20000076293945 35 19.20000076293945 L 5 19.20000076293945 C 2.238571166992188 19.20000076293945 0 16.9614200592041 0 14.20000076293945 L 0 5 C 0 2.238580703735352 2.238571166992188 0 5 0 Z" stroke="none" fill="#fff"/>
    </g>
    <g id="Component_7_1" data-name="Component 7 – 1" transform="translate(33)">
      <path id="Path_19" data-name="Path 19" d="M128,514.667l-6.333,14.681v49.506s-.333,3.414,3.667,3.414,9,3.073,22,2.731a192.968,192.968,0,0,0,26-2.731s5.667-1.024,5.333-3.414,0-49.506,0-49.506l-8-14.681s-13,1.366-23.333,1.707A85.045,85.045,0,0,1,128,514.667Z" transform="translate(-121.66 -490.667)" fill="#ec7777" stroke="#000" stroke-width="2"/>
      <g id="Rectangle_11" data-name="Rectangle 11" transform="translate(2.34)" fill="#5ee5d7" stroke="#000" stroke-width="2">
        <rect width="50" height="24" rx="5" stroke="none"/>
        <rect x="1" y="1" width="48" height="22" rx="4" fill="none"/>
      </g>
      <g id="Ellipse_13" data-name="Ellipse 13" transform="translate(6.34 37)" fill="#fff" stroke="#977a7a" stroke-width="1">
        <circle cx="22.5" cy="22.5" r="22.5" stroke="none"/>
        <circle cx="22.5" cy="22.5" r="22" fill="none"/>
      </g>
    </g>
    <g id="leaf_Icon" transform="translate(48.904 36.079)">
      <g id="Group_1" data-name="Group 1" transform="translate(0 0)">
        <path id="Path_1" data-name="Path 1" d="M29.948.562A.712.712,0,0,0,29.318,0C2.857,0,0,14.619,0,20.905a17.193,17.193,0,0,0,1.12,6.277.692.692,0,0,0,.589.489.709.709,0,0,0,.605-.454C4.1,23.1,9.16,12.943,17.515,7.546c.342-.218.751-.031.914.418a1.066,1.066,0,0,1-.316,1.216c-.63.407-1.235.851-1.829,1.311-.226.176-.446.364-.668.547-.334.276-.664.558-.986.849s-.637.582-.948.883c-.1.094-.19.191-.285.287C5.081,21.318,0,34.5,0,39.084c0,.5.305.909.682.909s.682-.407.682-.909a26.562,26.562,0,0,1,2.165-7.979,10.605,10.605,0,0,0,8.062,3.434c8.756,0,10.59-11.107,11.575-17.075A34.286,34.286,0,0,1,29.8,1.551,1.133,1.133,0,0,0,29.948.562Z" transform="translate(0 0)" fill="#0ec95d" stroke="#010000" stroke-width="1"/>
      </g>
    </g>
  </g>
</svg>
