<svg id="Question.icon" xmlns="http://www.w3.org/2000/svg" width="465.084" height="568" viewBox="0 0 465.084 568">
  <g id="Union_1" data-name="Union 1" transform="translate(-3.169 62)" fill="none">
    <path d="M95.278,363.089,3.169,409.775l45.4-97.915A227.95,227.95,0,0,1,10.253,185c0-126.473,102.526-229,229-229s229,102.527,229,229-102.527,229-229,229A228.064,228.064,0,0,1,95.278,363.089Z" stroke="none"/>
    <path d="M 239.25244140625 404.0000305175781 C 360.0097045898438 404.0000305175781 458.2528991699219 305.7572326660156 458.2528991699219 185.0004272460938 C 458.2528991699219 64.24308776855469 360.0097045898438 -34.0001106262207 239.25244140625 -34.0001106262207 C 118.4956436157227 -34.0001106262207 20.25284004211426 64.24308776855469 20.25284004211426 185.0004272460938 C 20.25284004211426 228.4042816162109 32.92303848266602 270.3536071777344 56.89377212524414 306.3134155273438 L 60.00410842895508 310.9794921875 L 57.64503860473633 316.0668334960938 L 24.37434959411621 387.8154907226563 L 90.75724029541016 354.1697692871094 L 96.53477478027344 351.2414855957031 L 101.5695724487305 355.3165588378906 C 140.3566436767578 386.7105407714844 189.2533721923828 404.0000305175781 239.25244140625 404.0000305175781 M 239.25244140625 414.0000305175781 C 184.7076416015625 414.0000305175781 134.6114349365234 394.9255676269531 95.27817535400391 363.0894775390625 L 3.168906927108765 409.7744750976563 L 48.57297515869141 311.8600158691406 C 24.3653736114502 275.5448303222656 10.25284004211426 231.9181518554688 10.25284004211426 185.0004272460938 C 10.25284004211426 58.52701950073242 112.7789764404297 -44.0001106262207 239.25244140625 -44.0001106262207 C 365.7257690429688 -44.0001106262207 468.2528991699219 58.52701950073242 468.2528991699219 185.0004272460938 C 468.2528991699219 311.472900390625 365.7257690429688 414.0000305175781 239.25244140625 414.0000305175781 Z" stroke="none" fill="#aea8a8"/>
  </g>
  <text id="_" data-name="?" transform="translate(157.084 388)" fill="#aea8a8" font-size="568" font-family="MicrosoftUighur, Microsoft Uighur"><tspan x="0" y="0">?</tspan></text>
</svg>
