<svg id="sun" xmlns="http://www.w3.org/2000/svg" width="74.058" height="72.462" viewBox="0 0 74.058 72.462">
  <path id="Path_3" data-name="Path 3" d="M139.039,186l3.654,10.539a38.713,38.713,0,0,1,7.115,1.346,19.2,19.2,0,0,1,5.769,3.654l11.154-5-5,11.923a10.712,10.712,0,0,1,2.5,3.462,5.7,5.7,0,0,1,0,3.846l13.077,5.192-13.077,5.192s0,4.038-1.154,5.962-2.308,3.654-2.308,3.654l5.962,12.308L153.077,242.5a33.971,33.971,0,0,1-5.192,2.692c-2.5.962-3.846,0-3.846,0l-5,13.269-4.615-13.269a22.628,22.628,0,0,1-5.192-1.346A33.593,33.593,0,0,1,125,240.193l-11.923,5.769,5.962-13.077a23.768,23.768,0,0,1-2.115-3.269,11.517,11.517,0,0,1-.962-3.462l-12.712-5.192,13.673-5.192a10.76,10.76,0,0,1,0-3.662,19.521,19.521,0,0,1,2.115-3.414l-5.962-12.858,11.923,5.7a12.831,12.831,0,0,1,4.231-3.654,16.767,16.767,0,0,1,5.953-1.346Z" transform="translate(-103.25 -186)" fill="#ffff07"/>
</svg>
